<?xml version="1.0" encoding="UTF-8" standalone="no"?>
<svg
   height="20.601196"
   viewBox="0 -960 960 824.04785"
   width="24"
   fill="#e8eaed"
   version="1.1"
   id="svg1"
   sodipodi:docname="driver.svg"
   inkscape:version="1.3.2 (091e20ef0f, 2023-11-25, custom)"
   xmlns:inkscape="http://www.inkscape.org/namespaces/inkscape"
   xmlns:sodipodi="http://sodipodi.sourceforge.net/DTD/sodipodi-0.dtd"
   xmlns="http://www.w3.org/2000/svg"
   xmlns:svg="http://www.w3.org/2000/svg">
  <defs
     id="defs1" />
  <sodipodi:namedview
     id="namedview1"
     pagecolor="#ffffff"
     bordercolor="#000000"
     borderopacity="0.25"
     inkscape:showpageshadow="2"
     inkscape:pageopacity="0.0"
     inkscape:pagecheckerboard="0"
     inkscape:deskcolor="#d1d1d1"
     inkscape:zoom="33.541667"
     inkscape:cx="12"
     inkscape:cy="10.270807"
     inkscape:window-width="1920"
     inkscape:window-height="1011"
     inkscape:window-x="0"
     inkscape:window-y="0"
     inkscape:window-maximized="1"
     inkscape:current-layer="svg1" />
  <path
     d="m 208.09576,-149.83057 q -80.60019,0 -137.408745,-56.80856 -56.808565,-56.80857 -56.808565,-137.40875 0,-80.60019 56.808565,-137.40875 56.808555,-56.80857 137.408745,-56.80857 80.60019,0 137.40875,56.80857 56.80856,56.80856 56.80856,137.40875 0,80.60018 -56.80856,137.40875 -56.80856,56.80856 -137.40875,56.80856 z m 0,-77.68692 q 48.55433,0 82.54236,-33.98804 33.98803,-33.98802 33.98803,-82.54235 0,-48.55433 -33.98803,-82.54236 -33.98803,-33.98803 -82.54236,-33.98803 -48.55433,0 -82.54236,33.98803 -33.988025,33.98803 -33.988025,82.54236 0,48.55433 33.988025,82.54235 33.98803,33.98804 82.54236,33.98804 z m 233.06078,-38.84347 v -194.21731 l -124.29909,-108.7617 q -11.65303,-10.68195 -17.47955,-24.7627 -5.82652,-14.08076 -5.82652,-29.61814 0,-15.53739 6.31206,-29.61814 6.31206,-14.08076 16.99401,-24.76271 l 108.7617,-108.7617 q 11.65304,-11.65303 26.70488,-17.47955 15.05185,-5.82652 31.56032,-5.82652 16.50847,0 31.56031,5.82652 15.05184,5.82652 26.70488,17.47955 l 73.80258,73.80258 q 27.19042,27.19042 62.14953,42.72781 34.95913,15.53739 73.80258,15.53739 v 77.68693 q -55.35193,0 -105.36288,-21.36391 -50.01096,-21.3639 -88.85442,-60.20737 l -31.07477,-31.07477 -93.22432,93.22431 85.45562,89.33997 v 240.82946 z m 174.79558,-524.38675 q -32.04585,0 -54.86639,-22.82053 -22.82054,-22.82053 -22.82054,-54.86639 0,-32.04586 22.82054,-54.86639 22.82054,-22.82053 54.86639,-22.82053 32.04586,0 54.86639,22.82053 22.82053,22.82053 22.82053,54.86639 0,32.04586 -22.82053,54.86639 -22.82053,22.82053 -54.86639,22.82053 z m 135.95211,640.91714 q -80.60018,0 -137.40874,-56.80856 -56.80856,-56.80857 -56.80856,-137.40875 0,-80.60019 56.80856,-137.40875 56.80856,-56.80857 137.40874,-56.80857 80.6002,0 137.40876,56.80857 56.80856,56.80856 56.80856,137.40875 0,80.60018 -56.80856,137.40875 -56.80856,56.80856 -137.40876,56.80856 z m 0,-77.68692 q 48.55434,0 82.54237,-33.98804 33.98802,-33.98802 33.98802,-82.54235 0,-48.55433 -33.98802,-82.54236 -33.98803,-33.98803 -82.54237,-33.98803 -48.55432,0 -82.54235,33.98803 -33.98803,33.98803 -33.98803,82.54236 0,48.55433 33.98803,82.54235 33.98803,33.98804 82.54235,33.98804 z"
     id="path1"
     style="fill:#f7df1e;fill-opacity:1;stroke:#000000;stroke-width:27.7569;stroke-linejoin:miter;stroke-dasharray:none;stroke-opacity:1" />
</svg>
